<?xml version="1.0" encoding="UTF-8" standalone="no"?>
<!-- Created with Inkscape (http://www.inkscape.org/) -->

<svg
   xmlns:dc="http://purl.org/dc/elements/1.1/"
   xmlns:cc="http://creativecommons.org/ns#"
   xmlns:rdf="http://www.w3.org/1999/02/22-rdf-syntax-ns#"
   xmlns:svg="http://www.w3.org/2000/svg"
   xmlns="http://www.w3.org/2000/svg"
   xmlns:sodipodi="http://sodipodi.sourceforge.net/DTD/sodipodi-0.dtd"
   xmlns:inkscape="http://www.inkscape.org/namespaces/inkscape"
   width="100"
   height="100"
   id="svg5534"
   version="1.1"
   inkscape:version="0.48.4 r9939"
   sodipodi:docname="dartlab_logo_wordmark.svg">
  <title
     id="title5654">DartLAB Logo</title>
  <defs
     id="defs5536" />
  <sodipodi:namedview
     id="base"
     pagecolor="#ffffff"
     bordercolor="#666666"
     borderopacity="1.0"
     inkscape:pageopacity="0.0"
     inkscape:pageshadow="2"
     inkscape:zoom="1.4"
     inkscape:cx="-18.464711"
     inkscape:cy="15.951887"
     inkscape:document-units="px"
     inkscape:current-layer="layer1"
     showgrid="false"
     fit-margin-top="0"
     fit-margin-left="0"
     fit-margin-right="0"
     fit-margin-bottom="0"
     inkscape:window-width="1440"
     inkscape:window-height="838"
     inkscape:window-x="-8"
     inkscape:window-y="-8"
     inkscape:window-maximized="1" />
  <metadata
     id="metadata5539">
    <rdf:RDF>
      <cc:Work
         rdf:about="">
        <dc:format>image/svg+xml</dc:format>
        <dc:type
           rdf:resource="http://purl.org/dc/dcmitype/StillImage" />
        <dc:title>DartLAB Logo</dc:title>
      </cc:Work>
    </rdf:RDF>
  </metadata>
  <g
     inkscape:label="Calque 1"
     inkscape:groupmode="layer"
     id="layer1"
     transform="translate(-353.70549,-952.36218)">
    <g
       id="g5488"
       transform="matrix(1.0552591,0,0,1.0552591,-610.62463,433.04458)">
      <g
         id="g5497"
         transform="translate(8,0)">
        <path
           inkscape:connector-curvature="0"
           style="fill:#22d3c5;fill-opacity:1;stroke:none"
           d="m 958.44188,494.1367 -6.9688,21.125 -22.9374,69.53126 54.5,0.0625 c 11.15,-0.0542 15.2033,-11.976 6.5624,-24.56251 l -24.625,-43.65625 -0.4687,-4.46875 c -0.058,-7.33114 -0.9576,-11.86274 4.2813,-18.03125 l -10.3438,0 z"
           id="path4377-8-38" />
        <path
           style="fill:#00a8e1;fill-opacity:1;stroke:none;stroke-width:3.51200008;marker:none;visibility:visible;display:inline;overflow:visible;enable-background:accumulate"
           d="m 928.44222,549.89007 -7.72491,12.40485 c -5.36097,9.56666 -1.734,18.92571 7.05897,18.37298 l 50.85122,0.0494 c 9.50438,-0.0428 12.98607,-9.47581 5.62054,-19.40878 l -6.95242,-11.41837 -48.8534,0 z"
           id="path2388-4-5-7-3-2-7"
           inkscape:connector-curvature="0" />
        <path
           style="font-size:medium;font-style:normal;font-variant:normal;font-weight:normal;font-stretch:normal;text-indent:0;text-align:start;text-decoration:none;line-height:normal;letter-spacing:normal;word-spacing:normal;text-transform:none;direction:ltr;block-progression:tb;writing-mode:lr-tb;text-anchor:start;baseline-shift:baseline;color:#000000;fill:#00a8e1;fill-opacity:1;stroke:none;stroke-width:4;marker:none;visibility:visible;display:inline;overflow:visible;enable-background:accumulate;font-family:Sans;-inkscape-font-specification:Sans"
           d="m 968.79456,492.12331 -32.46875,0.0312 a 2.0002,2.0002 0 0 0 -2,2 2.0002,2.0002 0 0 0 0.5,1.3125 c 2.46956,2.80332 3.36065,4.99337 3.78125,7.5 0.4206,2.50663 0.25164,5.41415 0.28125,9.15625 a 2.0002,2.0002 0 0 0 0.0312,0.0625 l 0.125,3.84375 -25.6875,44.5 a 2.0002,2.0002 0 0 0 -0.0312,0.0625 c -3.35231,6.4615 -3.99394,12.99827 -2.1875,18.0625 1.79308,5.02679 6.37546,8.49932 12.25,8.15625 0.0438,-0.003 0.0811,0.003 0.125,0 l 59.5,0.0625 a 2.0002,2.0002 0 0 0 0.0312,0 c 6.28803,-0.0306 11.07281,-3.70777 12.625,-9.03125 1.53984,-5.28113 0.17135,-11.92612 -4.3125,-18.53125 l -0.0937,-0.1562 -24.34375,-43.15625 -0.4375,-4.03125 c -0.0354,-3.64147 -0.21765,-6.4685 0.15625,-8.9375 0.381,-2.51587 1.26118,-4.76811 3.6875,-7.625 a 2.0002,2.0002 0 0 0 -1.53125,-3.28125 z m -3.65625,4 c -1.23763,2.12765 -2.15406,4.20321 -2.46875,6.28125 -0.47543,3.13947 -0.21594,6.19218 -0.1875,9.78125 a 2.0002,2.0002 0 0 0 0.0312,0.21875 l 0.46875,4.4375 a 2.0002,2.0002 0 0 0 0.25,0.75 l 24.625,43.6875 a 2.0002,2.0002 0 0 0 0.0937,0.125 c 4.07041,5.92905 4.98566,11.50331 3.875,15.3125 -1.10806,3.80028 -3.94006,6.12196 -8.78125,6.15625 l -0.0312,0 -59.625,-0.0625 a 2.0002,2.0002 0 0 0 -0.15625,0 c -4.37797,0.29725 -7.0163,-1.77856 -8.34375,-5.5 -1.32745,-3.72144 -0.93693,-9.21414 2,-14.875 l 25.9375,-44.9375 a 2.0002,2.0002 0 0 0 0.25,-1.0625 l -0.1875,-4.34375 c -1.8e-4,-0.0222 1.6e-4,-0.0404 0,-0.0625 -0.0253,-3.56041 0.2094,-6.60841 -0.3125,-9.71875 -0.34291,-2.04363 -1.26011,-4.08299 -2.5,-6.15625 l 25.0625,-0.0312 z"
           id="path2388-45-6-2-1-4"
           inkscape:connector-curvature="0" />
        <path
           inkscape:connector-curvature="0"
           style="fill:#0075c9;fill-opacity:1;stroke:none"
           d="m 940.03568,549.8867 -10.1563,30.78126 48.75,0.0625 c 9.5044,-0.0428 12.9905,-9.50454 5.625,-19.43751 l -6.9687,-11.40625 -37.25,0 z"
           id="path4377-6-2" />
        <path
           inkscape:connector-curvature="0"
           style="font-size:medium;font-style:normal;font-variant:normal;font-weight:normal;font-stretch:normal;text-indent:0;text-align:start;text-decoration:none;line-height:normal;letter-spacing:normal;word-spacing:normal;text-transform:none;direction:ltr;block-progression:tb;writing-mode:lr-tb;text-anchor:start;baseline-shift:baseline;color:#000000;fill:#0075c9;fill-opacity:1;stroke:none;stroke-width:4;marker:none;visibility:visible;display:inline;overflow:visible;enable-background:accumulate;font-family:Sans;-inkscape-font-specification:Sans"
           d="m 959.12938,492.1367 -1.3125,4 7.3125,0 c -1.2376,2.12765 -2.1541,4.20321 -2.4687,6.28125 -0.4755,3.13947 -0.216,6.19218 -0.1876,9.78125 a 2.0002,2.0002 0 0 0 0.031,0.21875 l 0.4687,4.4375 a 2.0002,2.0002 0 0 0 0.25,0.75 l 24.625,43.6875 a 2.0002,2.0002 0 0 0 0.094,0.125 c 4.0704,5.92905 4.9857,11.50331 3.875,15.3125 -1.1081,3.80029 -3.9401,6.12197 -8.7812,6.15626 l -0.031,0 -53.8125,-0.0625 -1.3125,4 55.125,0.0625 a 2.0002,2.0002 0 0 0 0.031,0 c 6.288,-0.0306 11.0728,-3.70777 12.625,-9.03126 1.5398,-5.28113 0.1713,-11.92612 -4.3126,-18.53125 l -0.094,-0.15625 -24.3437,-43.15625 -0.4376,-4.03125 c -0.035,-3.64147 -0.2176,-6.4685 0.1563,-8.9375 0.381,-2.51587 1.2612,-4.76811 3.6875,-7.625 a 2.0002,2.0002 0 0 0 -1.5312,-3.28125 l -9.6563,0 z"
           id="path2388-45-6-2-1-2-7" />
      </g>
    </g>
  </g>
</svg>
